# xmcd
#
# Track frame offsets:
#	150
#	22060
#	32700
#	48900
#	66857
#	84655
#	100942
#	118872
#	136970
#	152135
#	171552
#	190200
#	206905
#	221540
#
# Disc length: 3163 seconds
#
# Revision: 1
# Processed by: cddbd v1.5.1PL0 Copyright (c) Steve Scherf et al.
# Submitted via: CDex 1.50Beta5
#
DISCID=d10c590e
DTITLE=PUSHIM - SKY IS THE LIMIT
DYEAR=2002
DGENRE=ミュージック
TTITLE0=PUSHIM/SKY IS THE LIMIT
TTITLE1=JUMBO MAATCH/TYPE:UNDERGROUND 2002 SUPER
TTITLE2=RUDE BOY FACE/IT’S NOT FUNNY
TTITLE3=BOOGIE MAN/777
TTITLE4=PAPA B/O-HI-GE-GA-NA-I
TTITLE5=VADER/SUCK YOU MAMA
TTITLE6=MAJI-MAN/FARM,THE
TTITLE7=VADER/PARASITE
TTITLE8=TAKAFIN/GUILTY
TTITLE9=YOYO-C/C-TYPE
TTITLE10=MINMI/3 MINUTE
TTITLE11=PAPA B/エビータ-RAGGA TANGO-
TTITLE12=ATTOSHY/MOTTO
TTITLE13=BOXER KID/マイクバトルロワイヤル
EXTD=
EXTT0=
EXTT1=
EXTT2=
EXTT3=
EXTT4=
EXTT5=
EXTT6=
EXTT7=
EXTT8=
EXTT9=
EXTT10=
EXTT11=
EXTT12=
EXTT13=
PLAYORDER=
